<svg xmlns="http://www.w3.org/2000/svg" x="0px" y="0px" width="128" height="128" viewBox="0 0 172 172" style=" fill:#000000;">
	<g fill="none" fill-rule="nonzero" stroke="none" stroke-width="1" stroke-linecap="butt" stroke-linejoin="miter" stroke-miterlimit="10" stroke-dasharray="" stroke-dashoffset="0" font-family="none" font-weight="none" font-size="none" text-anchor="none" style="mix-blend-mode: normal">
		<path d="M0,172v-172h172v172z" fill="none"></path>
		<g>
			<path d="M110.07328,146.00852c0.91004,-0.00093 1.64852,0.73605 1.64945,1.64609c0.00093,0.91004 -0.73605,1.64852 -1.64609,1.64945c-0.91004,0.00093 -1.64852,-0.73605 -1.64945,-1.64609c-0.00089,-0.43715 0.17214,-0.85671 0.48094,-1.16614c0.3088,-0.30943 0.728,-0.48332 1.16515,-0.48332z" fill="#ef4136"></path>
			<path d="M98.07359,120.09094l-5.66391,1.99211l-1.57219,5.79492l-3.64492,-4.77367l-5.99648,0.29562l3.41313,-4.94164l-2.13656,-5.61016l5.75461,1.72l4.67961,-3.76586l0.14109,6.0032z" fill="#fadf4a"></path>
			<path d="M74.33625,118.82109l-15.33555,7.76352l-2.29781,17.03539l-12.12398,-12.18445l-16.91109,3.07719l7.84078,-15.29523l-8.1532,-15.13063l16.97156,2.73117l11.87203,-12.42969l2.64383,16.98164z" fill="#50a6ea"></path>
			<path d="M71.40352,77.42016l-5.66391,1.98875l-1.57219,5.79828l-3.64492,-4.77367l-5.99648,0.29563l3.41313,-4.94164l-2.13656,-5.61352l5.75461,1.72l4.67961,-3.7625l0.14109,6.0032z" fill="#ed6337"></path>
			<circle cx="27.13" cy="239.65" transform="scale(0.33594,0.33594)" r="6.13" fill="#ef4136"></circle>
			<path d="M38.78264,132.49039l6.80408,-13.27289l-7.19645,-13.35486l-11.03488,-1.77577l8.1532,15.13063l-7.84078,15.29523z" fill="#4a7cba"></path>
			<path d="M137.71926,112.78766l-0.88083,0.65877c-0.58327,0.42888 -0.89172,1.13762 -0.80808,1.85675c0.08364,0.71913 0.54653,1.33816 1.21266,1.62172c0.66613,0.28356 1.43317,0.18809 2.00947,-0.25011l0.88083,-0.65877c0.58327,-0.42888 0.89172,-1.13762 0.80808,-1.85675c-0.08364,-0.71913 -0.54653,-1.33816 -1.21266,-1.62172c-0.66613,-0.28356 -1.43317,-0.18809 -2.00947,0.25011z" fill="#284268"></path>
			<path d="M124.35533,31.29527c0.4625,0.00031 0.91093,-0.15905 1.26951,-0.45116l8.10785,-6.58437c0.85982,-0.70298 0.98898,-1.96903 0.28882,-2.83115c-0.70016,-0.86212 -1.96577,-0.99543 -2.83019,-0.29811l-8.10785,6.58437c-0.66267,0.53804 -0.91458,1.43515 -0.62886,2.2395c0.28573,0.80435 1.04713,1.3415 1.90071,1.34093z" fill="#284268"></path>
			<path d="M111.90985,36.78919l-14.74195,11.97214c-0.86421,0.70187 -0.99582,1.97143 -0.29395,2.83565c0.70187,0.86421 1.97143,0.99582 2.83565,0.29395l14.74161,-11.97248c0.5617,-0.45313 0.83828,-1.17199 0.72516,-1.88475c-0.11313,-0.71277 -0.5987,-1.31066 -1.2731,-1.5676c-0.6744,-0.25694 -1.43471,-0.13371 -1.99343,0.32309z" fill="#284268"></path>
			<path d="M74.99099,71.3847c0.46247,0.00049 0.91092,-0.15877 1.26951,-0.45083l10.66669,-8.66248c0.86421,-0.70169 0.99597,-1.9711 0.29428,-2.83531c-0.70169,-0.86421 -1.9711,-0.99597 -2.83531,-0.29428l-10.66669,8.66248c-0.66262,0.538 -0.91455,1.43502 -0.62891,2.23934c0.28564,0.80431 1.04691,1.34152 1.90043,1.34108z" fill="#284268"></path>
			<path d="M161.45156,57.58708l-7.3446,6.18125c-0.83971,0.72011 -0.94216,1.98242 -0.22955,2.82851c0.7126,0.84609 1.97395,0.95977 2.82635,0.25473l7.3446,-6.18125c0.85178,-0.71671 0.96128,-1.98823 0.24456,-2.84002c-0.71671,-0.85178 -1.98823,-0.96128 -2.84002,-0.24456z" fill="#284268"></path>
			<path d="M141.16094,74.66211l-24.98132,21.02095c-0.55456,0.46264 -0.81922,1.18661 -0.69379,1.89783c0.12543,0.71122 0.62179,1.30098 1.30116,1.546c0.67936,0.24502 1.4379,0.10784 1.98842,-0.35959l24.98132,-21.02062c0.85178,-0.71681 0.9612,-1.9884 0.24439,-2.84018c-0.71681,-0.85178 -1.9884,-0.9612 -2.84018,-0.24439z" fill="#284268"></path>
			<path d="M107.82418,105.34765c-0.34418,-0.40904 -0.83675,-0.6646 -1.36936,-0.71047c-0.53261,-0.04586 -1.06162,0.12173 -1.47066,0.46591l-4.11927,3.46654c-0.85178,0.71671 -0.96128,1.98823 -0.24456,2.84002c0.71671,0.85178 1.98823,0.96128 2.84002,0.24456l4.1196,-3.46654c0.85168,-0.71681 0.96102,-1.98832 0.24423,-2.84002z" fill="#284268"></path>
			<path d="M163.70234,27.69368l-30.14972,23.65c-0.57082,0.44308 -0.86078,1.15782 -0.76,1.87336c0.10078,0.71554 0.57689,1.32238 1.24788,1.59056c0.671,0.26817 1.43421,0.15664 2.00041,-0.29233l30.14938,-23.65c0.57595,-0.4413 0.87027,-1.15811 0.77061,-1.87682c-0.09966,-0.71871 -0.57793,-1.32838 -1.25223,-1.59631c-0.6743,-0.26793 -1.44058,-0.15276 -2.00633,0.30155z" fill="#284268"></path>
			<path d="M117.47734,68.53125c0.45087,0.00044 0.88875,-0.15105 1.24297,-0.43l4.70044,-3.68725c0.8759,-0.68703 1.02901,-1.95404 0.34198,-2.82994c-0.68703,-0.8759 -1.95404,-1.02901 -2.82994,-0.34198l-4.69842,3.68725c-0.67648,0.53031 -0.94222,1.43127 -0.66182,2.24381c0.2804,0.81254 1.04523,1.35787 1.90479,1.35811z" fill="#284268"></path>
			<path d="M73.4094,101.30397c0.33177,0.41923 0.81651,0.68948 1.34755,0.75128c0.53104,0.0618 1.06489,-0.0899 1.48407,-0.42173l29.6663,-23.48203c0.87293,-0.69083 1.02056,-1.95852 0.32972,-2.83145c-0.69083,-0.87293 -1.95852,-1.02056 -2.83145,-0.32972l-29.66664,23.48203c-0.41923,0.33177 -0.68948,0.81651 -0.75128,1.34755c-0.0618,0.53104 0.0899,1.06489 0.42173,1.48407z" fill="#284268"></path>
			<path d="M9.11398,76.43351c-2.25052,0 -4.07492,1.8244 -4.07492,4.07492c0,2.25052 1.8244,4.07492 4.07492,4.07492c2.25052,0 4.07492,-1.8244 4.07492,-4.07492c-0.00241,-2.24952 -1.8254,-4.07251 -4.07492,-4.07492z" fill="#284268"></path>
			<path d="M27.65337,67.83048c1.34066,0 2.42748,-1.08682 2.42748,-2.42748c0,-1.34066 -1.08682,-2.42748 -2.42748,-2.42748c-1.34066,0 -2.42748,1.08682 -2.42748,2.42748c0.00167,1.33997 1.08751,2.42582 2.42748,2.42748z" fill="#284268"></path>
			<path d="M110.07362,143.99457c-2.02231,0 -3.66172,1.63941 -3.66172,3.66172c0,2.02231 1.63941,3.66172 3.66172,3.66172c2.02231,0 3.66172,-1.63941 3.66172,-3.66172c-0.00296,-2.02108 -1.64063,-3.65876 -3.66172,-3.66172z" fill="#284268"></path>
			<path d="M104.65696,27.0386c1.27833,0 2.43079,-0.77007 2.91995,-1.95111c0.48917,-1.18104 0.21871,-2.54045 -0.68526,-3.44432c-0.90397,-0.90387 -2.26341,-1.17419 -3.4444,-0.6849c-1.18099,0.48929 -1.95093,1.64183 -1.9508,2.92016c0.00204,1.7446 1.4159,3.15831 3.1605,3.16016z" fill="#284268"></path>
			<path d="M99.17748,118.40352l-4.14077,-2.70665l-0.11758,-4.94366c-0.01811,-0.76715 -0.47024,-1.45747 -1.16624,-1.78062c-0.696,-0.32315 -1.51512,-0.22307 -2.11284,0.25815l-3.85253,3.10037l-4.73672,-1.41598c-0.73514,-0.2196 -1.53121,-0.0028 -2.05348,0.55925c-0.52227,0.56205 -0.68015,1.37187 -0.40726,2.08894l1.7583,4.62216l-2.81079,4.06888c-0.43546,0.6312 -0.47503,1.45483 -0.10209,2.12487c0.37294,0.67004 1.09379,1.07042 1.85971,1.03294l4.93828,-0.24389l3.00093,3.93047c0.4656,0.60986 1.23707,0.90249 1.99001,0.75482c0.75293,-0.14766 1.35673,-0.71 1.55749,-1.45055l1.29437,-4.77266l4.66584,-1.63971c0.72389,-0.25433 1.2406,-0.89759 1.33286,-1.65929c0.09226,-0.7617 -0.25593,-1.50972 -0.89816,-1.92953zM91.74084,120.17996c-0.62566,0.22008 -1.10301,0.73386 -1.27656,1.37398l-0.50391,1.85404l-1.1657,-1.52684c-0.38131,-0.49944 -0.97373,-0.79248 -1.60209,-0.79248c-0.03359,0 -0.06719,0 -0.10078,0.00269l-1.91854,0.09473l1.0918,-1.57891c0.37707,-0.54588 0.46137,-1.24236 0.22541,-1.86244l-0.68296,-1.79525l1.8406,0.54993c0.63568,0.18993 1.32412,0.05488 1.84094,-0.36113l1.49627,-1.204l0.04569,1.92022c0.0158,0.66314 0.35687,1.27605 0.91207,1.63904l1.60813,1.05115z" fill="#284268"></path>
			<path d="M54.62344,82.74141l4.93828,-0.24389l3.00127,3.93047c0.46555,0.60987 1.23697,0.90254 1.98989,0.75495c0.75292,-0.14759 1.35676,-0.70984 1.55761,-1.45034l1.29672,-4.77166l4.66584,-1.63971c0.72367,-0.25449 1.24015,-0.8977 1.33233,-1.65926c0.09218,-0.76156 -0.25591,-1.50942 -0.89796,-1.92922l-4.13909,-2.70631l-0.11758,-4.94366c-0.0182,-0.76702 -0.47029,-1.4572 -1.16617,-1.78032c-0.69588,-0.32313 -1.51486,-0.22316 -2.11258,0.25785l-3.85287,3.1007l-4.73672,-1.41598c-0.73511,-0.21969 -1.5312,-0.00299 -2.05353,0.55899c-0.52233,0.56198 -0.68033,1.37176 -0.40754,2.08887l1.7583,4.62216l-2.81213,4.06854c-0.43546,0.6312 -0.47503,1.45483 -0.10209,2.12487c0.37294,0.67004 1.09379,1.07042 1.85971,1.03294zM59.82106,75.07095l-0.68296,-1.79525l1.8406,0.54993c0.63578,0.19036 1.32452,0.05555 1.84161,-0.36046l1.4966,-1.20434l0.04569,1.92022c0.01577,0.66332 0.35698,1.2764 0.91241,1.63938l1.6078,1.05115l-1.81406,0.63828c-0.62566,0.22008 -1.10301,0.73386 -1.27656,1.37398l-0.50391,1.85404l-1.1657,-1.52684c-0.38131,-0.49944 -0.97373,-0.79248 -1.60209,-0.79248c-0.03359,0 -0.06719,0 -0.10078,0.00235l-1.91854,0.09473l1.0918,-1.58059c0.37888,-0.54537 0.46483,-1.24237 0.22978,-1.86345z" fill="#284268"></path>
			<path d="M75.20902,117.00434l-14.53669,-6.99019l-2.48224,-15.93755c-0.11799,-0.75818 -0.65622,-1.3836 -1.38835,-1.61326c-0.73213,-0.22966 -1.53115,-0.02373 -2.06106,0.53121l-11.14002,11.66509l-15.92344,-2.56387c-0.75745,-0.12186 -1.51839,0.19684 -1.96293,0.82211c-0.44453,0.62527 -0.49557,1.44868 -0.13164,2.12406l7.65131,14.19941l-7.36039,14.35327c-0.34991,0.68266 -0.28198,1.50476 0.17522,2.12073c0.4572,0.61597 1.22442,0.91903 1.97915,0.78177l15.86902,-2.88906l11.37652,11.43464c0.54113,0.54398 1.34418,0.73355 2.07145,0.48898c0.72727,-0.24456 1.25261,-0.88083 1.35511,-1.64125l2.15605,-15.98491l14.39022,-7.28615c0.68445,-0.34658 1.11279,-1.05167 1.10495,-1.81883c-0.00784,-0.76715 -0.45051,-1.46334 -1.1419,-1.79586zM58.0893,124.78701c-0.59197,0.29973 -0.99852,0.8716 -1.08709,1.52919l-1.75158,12.98768l-9.24332,-9.29035c-0.37827,-0.38017 -0.89245,-0.59391 -1.42874,-0.59394c-0.12115,0.00019 -0.24203,0.01143 -0.36113,0.03359l-12.89362,2.3472l5.97969,-11.6614c0.30272,-0.59034 0.29556,-1.29184 -0.01915,-1.87587l-6.2172,-11.53811l12.93897,2.08281c0.655,0.10545 1.31994,-0.11816 1.77812,-0.59797l9.05116,-9.4778l2.01563,12.94938c0.10207,0.6555 0.52015,1.21881 1.118,1.50634l11.81089,5.67734z" fill="#284268"></path>
		</g>
	</g>
</svg>